<svg width="32" height="32" viewBox="0 0 100 100" fill="none" xmlns="http://www.w3.org/2000/svg" class=""><circle cx="50" cy="50" r="45" stroke="url(#gradientStroke)" stroke-width="2" stroke-dasharray="4 2"><animateTransform attributeName="transform" type="rotate" from="0 50 50" to="360 50 50" dur="20s" repeatCount="indefinite"></animateTransform></circle><path d="M20 50C20 30 35 20 50 20M80 50C80 70 65 80 50 80" stroke="url(#gradientAI)" stroke-width="1.5" stroke-dasharray="3 3" opacity="0.6"><animate attributeName="stroke-dashoffset" values="0;12" dur="2s" repeatCount="indefinite"></animate></path><path d="M35 30H65M50 30L50 70L65 55" stroke="url(#gradientPrimary)" stroke-width="8" stroke-linecap="round" stroke-linejoin="round"></path><circle cx="35" cy="30" r="4" fill="url(#gradientAccent)"><animate attributeName="opacity" values="0.5;1;0.5" dur="2s" repeatCount="indefinite"></animate></circle><circle cx="65" cy="30" r="4" fill="url(#gradientAccent)"><animate attributeName="opacity" values="0.5;1;0.5" dur="2s" repeatCount="indefinite" begin="0.5s"></animate></circle><circle cx="65" cy="55" r="4" fill="url(#gradientAccent)"><animate attributeName="opacity" values="0.5;1;0.5" dur="2s" repeatCount="indefinite" begin="1s"></animate></circle><path d="M25 60Q50 40 75 60" stroke="url(#gradientFinance)" stroke-width="1.5" stroke-dasharray="4 4" opacity="0.4"><animate attributeName="stroke-dashoffset" values="0;16" dur="3s" repeatCount="indefinite"></animate></path><defs><linearGradient id="gradientPrimary" x1="0" y1="0" x2="100" y2="100" gradientUnits="userSpaceOnUse"><stop offset="0%" stop-color="#3B82F6"></stop><stop offset="100%" stop-color="#2563EB"></stop></linearGradient><linearGradient id="gradientAccent" x1="0" y1="0" x2="100" y2="0" gradientUnits="userSpaceOnUse"><stop offset="0%" stop-color="#60A5FA"></stop><stop offset="100%" stop-color="#3B82F6"></stop></linearGradient><linearGradient id="gradientStroke" x1="0" y1="0" x2="100" y2="100" gradientUnits="userSpaceOnUse"><stop offset="0%" stop-color="#60A5FA" stop-opacity="0.3"></stop><stop offset="100%" stop-color="#3B82F6" stop-opacity="0.3"></stop></linearGradient><linearGradient id="gradientAI" x1="0" y1="0" x2="100" y2="0" gradientUnits="userSpaceOnUse"><stop offset="0%" stop-color="#818CF8"></stop><stop offset="100%" stop-color="#6366F1"></stop></linearGradient><linearGradient id="gradientFinance" x1="0" y1="0" x2="100" y2="0" gradientUnits="userSpaceOnUse"><stop offset="0%" stop-color="#34D399"></stop><stop offset="100%" stop-color="#10B981"></stop></linearGradient></defs></svg>