<svg width="569" height="152" viewBox="0 0 569 152" fill="none" xmlns="http://www.w3.org/2000/svg">
<rect x="1" y="0.5" width="538.5" height="151" rx="11.5" stroke="#262626"/>
<path d="M27.9641 38.8125L24.0734 34.9219C23.8391 34.6875 23.8391 34.2891 24.0734 34.0547L24.9172 33.2109C25.1516 32.9766 25.5266 32.9766 25.7609 33.2109L28.4094 35.8359L34.0344 30.2109C34.2687 29.9766 34.6437 29.9766 34.8781 30.2109L35.7219 31.0547C35.9562 31.2891 35.9562 31.6875 35.7219 31.9219L28.8312 38.8125C28.5969 39.0469 28.1984 39.0469 27.9641 38.8125Z" fill="#60A5FA"/>
<path d="M46.8446 39V30.2432H43.6659V29.1357H51.2538V30.2432H48.0751V39H46.8446ZM54.6444 39.1299C52.539 39.1299 51.2675 37.6533 51.2675 35.3428V35.3359C51.2675 33.0596 52.5663 31.501 54.5692 31.501C56.5722 31.501 57.789 32.9912 57.789 35.1924V35.6572H52.4843C52.5185 37.1816 53.3593 38.0703 54.6718 38.0703C55.6698 38.0703 56.2851 37.5986 56.4833 37.1543L56.5107 37.0928H57.7001L57.6864 37.1475C57.4335 38.1455 56.3808 39.1299 54.6444 39.1299ZM54.5624 32.5605C53.4687 32.5605 52.6347 33.3057 52.5048 34.707H56.579C56.456 33.251 55.6493 32.5605 54.5624 32.5605ZM61.6581 39.1299C60.2567 39.1299 59.1972 38.2822 59.1972 36.9424V36.9287C59.1972 35.6162 60.1679 34.8574 61.8837 34.7549L63.996 34.625V33.9551C63.996 33.0459 63.4423 32.5537 62.3417 32.5537C61.4599 32.5537 60.8788 32.8818 60.6874 33.4561L60.6806 33.4766H59.4911L59.498 33.4355C59.6894 32.2803 60.8105 31.501 62.3827 31.501C64.1806 31.501 65.1855 32.4238 65.1855 33.9551V39H63.996V37.9131H63.8866C63.4218 38.6992 62.6493 39.1299 61.6581 39.1299ZM60.414 36.915C60.414 37.6602 61.0497 38.0977 61.9042 38.0977C63.1142 38.0977 63.996 37.3047 63.996 36.252V35.582L62.0273 35.7051C60.9062 35.7734 60.414 36.1699 60.414 36.9014V36.915ZM67.3593 39V31.6309H68.5487V32.752H68.6581C68.9862 31.959 69.6835 31.501 70.6474 31.501C71.6454 31.501 72.3427 32.0273 72.6845 32.793H72.7939C73.1903 32.0137 74.0312 31.501 75.0497 31.501C76.5536 31.501 77.3944 32.3623 77.3944 33.9072V39H76.205V34.1807C76.205 33.0938 75.706 32.5537 74.6669 32.5537C73.6415 32.5537 72.9648 33.3262 72.9648 34.2627V39H71.7753V33.9961C71.7753 33.1211 71.1737 32.5537 70.244 32.5537C69.2802 32.5537 68.5487 33.3945 68.5487 34.4336V39H67.3593ZM82.6923 28.7051L79.5751 41.4609H78.4335L81.5507 28.7051H82.6923ZM83.9569 39V29.1357H85.1874V39H83.9569ZM87.5526 39V31.6309H88.7421V32.7383H88.8515C89.2206 31.959 89.911 31.501 90.998 31.501C92.6523 31.501 93.5751 32.4785 93.5751 34.2285V39H92.3857V34.5156C92.3857 33.1895 91.8388 32.5537 90.663 32.5537C89.4872 32.5537 88.7421 33.3467 88.7421 34.6387V39H87.5526ZM98.4491 39.1299C96.5829 39.1299 95.3593 37.6191 95.3593 35.3223V35.3086C95.3593 32.998 96.5761 31.501 98.4491 31.501C99.4608 31.501 100.343 32.0068 100.746 32.793H100.855V28.7051H102.045V39H100.855V37.8242H100.746C100.295 38.6445 99.4745 39.1299 98.4491 39.1299ZM98.7226 38.0771C100.062 38.0771 100.883 37.0244 100.883 35.3223V35.3086C100.883 33.6064 100.062 32.5537 98.7226 32.5537C97.3759 32.5537 96.5761 33.5928 96.5761 35.3086V35.3223C96.5761 37.0381 97.3759 38.0771 98.7226 38.0771ZM104.957 30.209C104.506 30.209 104.137 29.8398 104.137 29.3887C104.137 28.9375 104.506 28.5684 104.957 28.5684C105.408 28.5684 105.777 28.9375 105.777 29.3887C105.777 29.8398 105.408 30.209 104.957 30.209ZM104.355 39V31.6309H105.545V39H104.355ZM109.872 39L107.144 31.6309H108.402L110.419 37.7012H110.528L112.545 31.6309H113.803L111.075 39H109.872ZM116.004 30.209C115.553 30.209 115.184 29.8398 115.184 29.3887C115.184 28.9375 115.553 28.5684 116.004 28.5684C116.455 28.5684 116.824 28.9375 116.824 29.3887C116.824 29.8398 116.455 30.209 116.004 30.209ZM115.402 39V31.6309H116.592V39H115.402ZM121.555 39.1299C119.688 39.1299 118.465 37.6191 118.465 35.3223V35.3086C118.465 32.998 119.682 31.501 121.555 31.501C122.566 31.501 123.448 32.0068 123.851 32.793H123.961V28.7051H125.15V39H123.961V37.8242H123.851C123.4 38.6445 122.58 39.1299 121.555 39.1299ZM121.828 38.0771C123.168 38.0771 123.988 37.0244 123.988 35.3223V35.3086C123.988 33.6064 123.168 32.5537 121.828 32.5537C120.481 32.5537 119.682 33.5928 119.682 35.3086V35.3223C119.682 37.0381 120.481 38.0771 121.828 38.0771ZM129.901 39.1299C128.226 39.1299 127.365 38.1455 127.365 36.4023V31.6309H128.555V36.1152C128.555 37.4414 129.033 38.0771 130.209 38.0771C131.508 38.0771 132.198 37.2842 132.198 35.9922V31.6309H133.388V39H132.198V37.8994H132.089C131.726 38.6855 130.981 39.1299 129.901 39.1299ZM137.633 39.1299C136.231 39.1299 135.172 38.2822 135.172 36.9424V36.9287C135.172 35.6162 136.142 34.8574 137.858 34.7549L139.971 34.625V33.9551C139.971 33.0459 139.417 32.5537 138.316 32.5537C137.434 32.5537 136.853 32.8818 136.662 33.4561L136.655 33.4766H135.466L135.473 33.4355C135.664 32.2803 136.785 31.501 138.357 31.501C140.155 31.501 141.16 32.4238 141.16 33.9551V39H139.971V37.9131H139.861C139.396 38.6992 138.624 39.1299 137.633 39.1299ZM136.389 36.915C136.389 37.6602 137.024 38.0977 137.879 38.0977C139.089 38.0977 139.971 37.3047 139.971 36.252V35.582L138.002 35.7051C136.881 35.7734 136.389 36.1699 136.389 36.9014V36.915ZM143.402 39V28.7051H144.592V39H143.402ZM150.963 39V29.1357H152.159L157.512 36.8125H157.621V29.1357H158.838V39H157.642L152.289 31.3506H152.18V39H150.963ZM163.226 39.1299C161.825 39.1299 160.766 38.2822 160.766 36.9424V36.9287C160.766 35.6162 161.736 34.8574 163.452 34.7549L165.564 34.625V33.9551C165.564 33.0459 165.011 32.5537 163.91 32.5537C163.028 32.5537 162.447 32.8818 162.256 33.4561L162.249 33.4766H161.059L161.066 33.4355C161.258 32.2803 162.379 31.501 163.951 31.501C165.749 31.501 166.754 32.4238 166.754 33.9551V39H165.564V37.9131H165.455C164.99 38.6992 164.218 39.1299 163.226 39.1299ZM161.982 36.915C161.982 37.6602 162.618 38.0977 163.473 38.0977C164.683 38.0977 165.564 37.3047 165.564 36.252V35.582L163.596 35.7051C162.475 35.7734 161.982 36.1699 161.982 36.9014V36.915ZM168.928 39V31.6309H170.117V32.752H170.226C170.555 31.959 171.252 31.501 172.216 31.501C173.214 31.501 173.911 32.0273 174.253 32.793H174.362C174.759 32.0137 175.6 31.501 176.618 31.501C178.122 31.501 178.963 32.3623 178.963 33.9072V39H177.773V34.1807C177.773 33.0938 177.274 32.5537 176.235 32.5537C175.21 32.5537 174.533 33.3262 174.533 34.2627V39H173.344V33.9961C173.344 33.1211 172.742 32.5537 171.812 32.5537C170.849 32.5537 170.117 33.3945 170.117 34.4336V39H168.928ZM184.117 39.1299C182.012 39.1299 180.74 37.6533 180.74 35.3428V35.3359C180.74 33.0596 182.039 31.501 184.042 31.501C186.045 31.501 187.262 32.9912 187.262 35.1924V35.6572H181.957C181.991 37.1816 182.832 38.0703 184.144 38.0703C185.142 38.0703 185.758 37.5986 185.956 37.1543L185.983 37.0928H187.173L187.159 37.1475C186.906 38.1455 185.853 39.1299 184.117 39.1299ZM184.035 32.5605C182.941 32.5605 182.107 33.3057 181.977 34.707H186.052C185.929 33.251 185.122 32.5605 184.035 32.5605Z" fill="#BFDBFE"/>
<path d="M27.9641 66.8125L24.0734 62.9219C23.8391 62.6875 23.8391 62.2891 24.0734 62.0547L24.9172 61.2109C25.1516 60.9766 25.5266 60.9766 25.7609 61.2109L28.4094 63.8359L34.0344 58.2109C34.2687 57.9766 34.6437 57.9766 34.8781 58.2109L35.7219 59.0547C35.9562 59.2891 35.9562 59.6875 35.7219 59.9219L28.8312 66.8125C28.5969 67.0469 28.1984 67.0469 27.9641 66.8125Z" fill="#60A5FA"/>
<path d="M48.4213 67.2324C45.5913 67.2324 43.8959 65.2227 43.8959 62.0713V62.0576C43.8959 58.8926 45.6323 56.9033 48.4213 56.9033C51.2241 56.9033 52.9467 58.8994 52.9467 62.0576V62.0713C52.9467 65.2158 51.2377 67.2324 48.4213 67.2324ZM48.4213 66.0977C50.4448 66.0977 51.6889 64.5117 51.6889 62.0713V62.0576C51.6889 59.5967 50.4379 58.0381 48.4213 58.0381C46.4116 58.0381 45.1538 59.5967 45.1538 62.0576V62.0713C45.1538 64.5117 46.3706 66.0977 48.4213 66.0977ZM55.4213 67V60.6152H54.1977V59.6309H55.4213V58.8105C55.4213 57.3408 56.1596 56.6367 57.561 56.6367C57.8481 56.6367 58.1079 56.6572 58.354 56.7051V57.6553C58.2104 57.6279 58.0122 57.6211 57.8002 57.6211C56.9526 57.6211 56.6108 58.0381 56.6108 58.8447V59.6309H58.2856V60.6152H56.6108V67H55.4213ZM60.4936 67V60.6152H59.27V59.6309H60.4936V58.8105C60.4936 57.3408 61.2319 56.6367 62.6332 56.6367C62.9204 56.6367 63.1801 56.6572 63.4262 56.7051V57.6553C63.2827 57.6279 63.0844 57.6211 62.8725 57.6211C62.0248 57.6211 61.6831 58.0381 61.6831 58.8447V59.6309H63.3579V60.6152H61.6831V67H60.4936ZM65.7026 58.209C65.2514 58.209 64.8823 57.8398 64.8823 57.3887C64.8823 56.9375 65.2514 56.5684 65.7026 56.5684C66.1538 56.5684 66.5229 56.9375 66.5229 57.3887C66.5229 57.8398 66.1538 58.209 65.7026 58.209ZM65.101 67V59.6309H66.2905V67H65.101ZM71.5473 67.1299C69.4829 67.1299 68.1635 65.6328 68.1635 63.2949V63.2812C68.1635 60.9912 69.476 59.501 71.5405 59.501C73.3315 59.501 74.4047 60.5332 74.6235 61.8457L74.6303 61.8867H73.4477L73.4409 61.8662C73.2563 61.1416 72.6 60.5537 71.5405 60.5537C70.2143 60.5537 69.3803 61.6201 69.3803 63.2812V63.2949C69.3803 64.9902 70.228 66.0771 71.5405 66.0771C72.5317 66.0771 73.1606 65.6396 73.434 64.8193L73.4477 64.7783L74.6235 64.7715L74.6098 64.8467C74.309 66.1797 73.3178 67.1299 71.5473 67.1299ZM76.9956 58.209C76.5444 58.209 76.1752 57.8398 76.1752 57.3887C76.1752 56.9375 76.5444 56.5684 76.9956 56.5684C77.4467 56.5684 77.8159 56.9375 77.8159 57.3887C77.8159 57.8398 77.4467 58.209 76.9956 58.209ZM76.394 67V59.6309H77.5834V67H76.394ZM81.8491 67.1299C80.4477 67.1299 79.3881 66.2822 79.3881 64.9424V64.9287C79.3881 63.6162 80.3588 62.8574 82.0747 62.7549L84.187 62.625V61.9551C84.187 61.0459 83.6332 60.5537 82.5327 60.5537C81.6508 60.5537 81.0698 60.8818 80.8784 61.4561L80.8715 61.4766H79.6821L79.6889 61.4355C79.8803 60.2803 81.0014 59.501 82.5737 59.501C84.3715 59.501 85.3764 60.4238 85.3764 61.9551V67H84.187V65.9131H84.0776C83.6127 66.6992 82.8403 67.1299 81.8491 67.1299ZM80.6049 64.915C80.6049 65.6602 81.2407 66.0977 82.0952 66.0977C83.3051 66.0977 84.187 65.3047 84.187 64.252V63.582L82.2182 63.7051C81.0971 63.7734 80.6049 64.1699 80.6049 64.9014V64.915ZM87.6186 67V56.7051H88.8081V67H87.6186ZM98.4125 67.2324C96.2524 67.2324 94.8579 66.0977 94.7143 64.4912L94.7075 64.416H95.9379L95.9448 64.4912C96.0336 65.4756 97.059 66.0977 98.4809 66.0977C99.8207 66.0977 100.798 65.4072 100.798 64.4023V64.3955C100.798 63.5752 100.231 63.0146 98.8774 62.7139L97.7836 62.4746C95.8081 62.0371 94.9536 61.1279 94.9536 59.6992V59.6924C94.9604 58.0586 96.3891 56.9033 98.4262 56.9033C100.395 56.9033 101.769 58.0654 101.872 59.5352L101.878 59.6309H100.648L100.634 59.542C100.498 58.6738 99.6772 58.0312 98.392 58.0381C97.1616 58.0449 96.2114 58.626 96.2114 59.6582V59.665C96.2114 60.4512 96.7514 60.9844 98.0913 61.2783L99.185 61.5244C101.243 61.9824 102.056 62.8096 102.056 64.2314V64.2383C102.056 66.084 100.614 67.2324 98.4125 67.2324ZM106.985 67.1299C104.886 67.1299 103.587 65.6807 103.587 63.3223V63.3086C103.587 60.9434 104.886 59.501 106.985 59.501C109.083 59.501 110.382 60.9434 110.382 63.3086V63.3223C110.382 65.6807 109.083 67.1299 106.985 67.1299ZM106.985 66.0771C108.379 66.0771 109.165 65.0586 109.165 63.3223V63.3086C109.165 61.5654 108.379 60.5537 106.985 60.5537C105.59 60.5537 104.804 61.5654 104.804 63.3086V63.3223C104.804 65.0586 105.59 66.0771 106.985 66.0771ZM115.243 67.1299C113.178 67.1299 111.859 65.6328 111.859 63.2949V63.2812C111.859 60.9912 113.171 59.501 115.236 59.501C117.027 59.501 118.1 60.5332 118.319 61.8457L118.326 61.8867H117.143L117.136 61.8662C116.952 61.1416 116.295 60.5537 115.236 60.5537C113.91 60.5537 113.076 61.6201 113.076 63.2812V63.2949C113.076 64.9902 113.923 66.0771 115.236 66.0771C116.227 66.0771 116.856 65.6396 117.129 64.8193L117.143 64.7783L118.319 64.7715L118.305 64.8467C118.004 66.1797 117.013 67.1299 115.243 67.1299ZM120.691 58.209C120.24 58.209 119.871 57.8398 119.871 57.3887C119.871 56.9375 120.24 56.5684 120.691 56.5684C121.142 56.5684 121.511 56.9375 121.511 57.3887C121.511 57.8398 121.142 58.209 120.691 58.209ZM120.089 67V59.6309H121.279V67H120.089ZM125.544 67.1299C124.143 67.1299 123.083 66.2822 123.083 64.9424V64.9287C123.083 63.6162 124.054 62.8574 125.77 62.7549L127.882 62.625V61.9551C127.882 61.0459 127.329 60.5537 126.228 60.5537C125.346 60.5537 124.765 60.8818 124.574 61.4561L124.567 61.4766H123.377L123.384 61.4355C123.576 60.2803 124.697 59.501 126.269 59.501C128.067 59.501 129.072 60.4238 129.072 61.9551V67H127.882V65.9131H127.773C127.308 66.6992 126.536 67.1299 125.544 67.1299ZM124.3 64.915C124.3 65.6602 124.936 66.0977 125.79 66.0977C127 66.0977 127.882 65.3047 127.882 64.252V63.582L125.914 63.7051C124.792 63.7734 124.3 64.1699 124.3 64.9014V64.915ZM131.314 67V56.7051H132.503V67H131.314ZM138.874 67V57.1357H140.303L143.68 65.3662H143.789L147.166 57.1357H148.595V67H147.447V59.4668H147.372L144.254 67H143.215L140.098 59.4668H140.023V67H138.874ZM153.968 67.1299C151.863 67.1299 150.591 65.6533 150.591 63.3428V63.3359C150.591 61.0596 151.89 59.501 153.893 59.501C155.896 59.501 157.113 60.9912 157.113 63.1924V63.6572H151.808C151.842 65.1816 152.683 66.0703 153.996 66.0703C154.994 66.0703 155.609 65.5986 155.807 65.1543L155.834 65.0928H157.024L157.01 65.1475C156.757 66.1455 155.705 67.1299 153.968 67.1299ZM153.886 60.5605C152.792 60.5605 151.958 61.3057 151.829 62.707H155.903C155.78 61.251 154.973 60.5605 153.886 60.5605ZM161.679 67.1299C159.813 67.1299 158.589 65.6191 158.589 63.3223V63.3086C158.589 60.998 159.806 59.501 161.679 59.501C162.691 59.501 163.573 60.0068 163.976 60.793H164.085V56.7051H165.275V67H164.085V65.8242H163.976C163.525 66.6445 162.705 67.1299 161.679 67.1299ZM161.953 66.0771C163.292 66.0771 164.113 65.0244 164.113 63.3223V63.3086C164.113 61.6064 163.292 60.5537 161.953 60.5537C160.606 60.5537 159.806 61.5928 159.806 63.3086V63.3223C159.806 65.0381 160.606 66.0771 161.953 66.0771ZM168.187 58.209C167.736 58.209 167.367 57.8398 167.367 57.3887C167.367 56.9375 167.736 56.5684 168.187 56.5684C168.638 56.5684 169.007 56.9375 169.007 57.3887C169.007 57.8398 168.638 58.209 168.187 58.209ZM167.585 67V59.6309H168.775V67H167.585ZM173.04 67.1299C171.639 67.1299 170.58 66.2822 170.58 64.9424V64.9287C170.58 63.6162 171.55 62.8574 173.266 62.7549L175.378 62.625V61.9551C175.378 61.0459 174.825 60.5537 173.724 60.5537C172.842 60.5537 172.261 60.8818 172.07 61.4561L172.063 61.4766H170.873L170.88 61.4355C171.072 60.2803 172.193 59.501 173.765 59.501C175.563 59.501 176.568 60.4238 176.568 61.9551V67H175.378V65.9131H175.269C174.804 66.6992 174.032 67.1299 173.04 67.1299ZM171.796 64.915C171.796 65.6602 172.432 66.0977 173.287 66.0977C174.497 66.0977 175.378 65.3047 175.378 64.252V63.582L173.41 63.7051C172.289 63.7734 171.796 64.1699 171.796 64.9014V64.915ZM182.83 67V57.1357H184.06V65.8926H188.818V67H182.83ZM191.265 58.209C190.814 58.209 190.445 57.8398 190.445 57.3887C190.445 56.9375 190.814 56.5684 191.265 56.5684C191.716 56.5684 192.085 56.9375 192.085 57.3887C192.085 57.8398 191.716 58.209 191.265 58.209ZM190.664 67V59.6309H191.853V67H190.664ZM194.095 67V59.6309H195.285V60.7383H195.394C195.763 59.959 196.454 59.501 197.54 59.501C199.195 59.501 200.118 60.4785 200.118 62.2285V67H198.928V62.5156C198.928 61.1895 198.381 60.5537 197.206 60.5537C196.03 60.5537 195.285 61.3467 195.285 62.6387V67H194.095ZM202.339 67V56.7051H203.529V62.8506H203.638L206.824 59.6309H208.266L205.053 62.7275L208.478 67H206.981L204.219 63.5342L203.529 64.2041V67H202.339ZM212.128 67.1299C210.488 67.1299 209.36 66.3369 209.223 65.1201H210.44C210.638 65.7354 211.226 66.1387 212.169 66.1387C213.161 66.1387 213.865 65.667 213.865 64.9971V64.9834C213.865 64.4844 213.489 64.1357 212.58 63.917L211.438 63.6436C210.057 63.3154 209.435 62.7139 209.435 61.6543V61.6475C209.435 60.4238 210.611 59.501 212.176 59.501C213.721 59.501 214.794 60.2734 214.958 61.4766H213.789C213.632 60.8955 213.058 60.4922 212.169 60.4922C211.294 60.4922 210.652 60.9434 210.652 61.5928V61.6064C210.652 62.1055 211.021 62.4199 211.889 62.6318L213.024 62.9053C214.412 63.2402 215.081 63.8418 215.081 64.8945V64.9082C215.081 66.2207 213.803 67.1299 212.128 67.1299Z" fill="#BFDBFE"/>
<path d="M27.9641 94.8125L24.0734 90.9219C23.8391 90.6875 23.8391 90.2891 24.0734 90.0547L24.9172 89.2109C25.1516 88.9766 25.5266 88.9766 25.7609 89.2109L28.4094 91.8359L34.0344 86.2109C34.2687 85.9766 34.6437 85.9766 34.8781 86.2109L35.7219 87.0547C35.9562 87.2891 35.9562 87.6875 35.7219 87.9219L28.8312 94.8125C28.5969 95.0469 28.1984 95.0469 27.9641 94.8125Z" fill="#60A5FA"/>
<path d="M44.3199 95V85.1357H48.0933C49.9049 85.1357 51.0123 86.0859 51.0123 87.5898V87.6035C51.0123 88.6221 50.2603 89.5518 49.3101 89.7227V89.832C50.6568 90.0029 51.5113 90.9258 51.5113 92.2246V92.2383C51.5113 93.9678 50.2672 95 48.1685 95H44.3199ZM47.8336 86.2227H45.5504V89.3877H47.5191C49.0094 89.3877 49.7682 88.8545 49.7682 87.8154V87.8018C49.7682 86.8037 49.0572 86.2227 47.8336 86.2227ZM47.8678 90.4473H45.5504V93.9131H47.984C49.4674 93.9131 50.2467 93.3115 50.2467 92.1768V92.1631C50.2467 91.0283 49.44 90.4473 47.8678 90.4473ZM55.8385 95.1299C54.1637 95.1299 53.3023 94.1455 53.3023 92.4023V87.6309H54.4918V92.1152C54.4918 93.4414 54.9703 94.0771 56.1461 94.0771C57.4449 94.0771 58.1353 93.2842 58.1353 91.9922V87.6309H59.3248V95H58.1353V93.8994H58.026C57.6637 94.6855 56.9185 95.1299 55.8385 95.1299ZM64.0758 95.1299C62.4351 95.1299 61.3072 94.3369 61.1705 93.1201H62.3873C62.5855 93.7354 63.1734 94.1387 64.1168 94.1387C65.108 94.1387 65.8121 93.667 65.8121 92.9971V92.9834C65.8121 92.4844 65.4361 92.1357 64.5269 91.917L63.3853 91.6436C62.0045 91.3154 61.3824 90.7139 61.3824 89.6543V89.6475C61.3824 88.4238 62.5582 87.501 64.1236 87.501C65.6685 87.501 66.7418 88.2734 66.9058 89.4766H65.7369C65.5797 88.8955 65.0055 88.4922 64.1168 88.4922C63.2418 88.4922 62.5992 88.9434 62.5992 89.5928V89.6064C62.5992 90.1055 62.9683 90.4199 63.8365 90.6318L64.9713 90.9053C66.359 91.2402 67.0289 91.8418 67.0289 92.8945V92.9082C67.0289 94.2207 65.7506 95.1299 64.0758 95.1299ZM69.5035 86.209C69.0523 86.209 68.6832 85.8398 68.6832 85.3887C68.6832 84.9375 69.0523 84.5684 69.5035 84.5684C69.9547 84.5684 70.3238 84.9375 70.3238 85.3887C70.3238 85.8398 69.9547 86.209 69.5035 86.209ZM68.9019 95V87.6309H70.0914V95H68.9019ZM72.3336 95V87.6309H73.523V88.7383H73.6324C74.0015 87.959 74.692 87.501 75.7789 87.501C77.4332 87.501 78.356 88.4785 78.356 90.2285V95H77.1666V90.5156C77.1666 89.1895 76.6197 88.5537 75.4439 88.5537C74.2682 88.5537 73.523 89.3467 73.523 90.6387V95H72.3336ZM83.5172 95.1299C81.4117 95.1299 80.1402 93.6533 80.1402 91.3428V91.3359C80.1402 89.0596 81.439 87.501 83.442 87.501C85.4449 87.501 86.6617 88.9912 86.6617 91.1924V91.6572H81.357C81.3912 93.1816 82.232 94.0703 83.5445 94.0703C84.5426 94.0703 85.1578 93.5986 85.356 93.1543L85.3834 93.0928H86.5728L86.5592 93.1475C86.3062 94.1455 85.2535 95.1299 83.5172 95.1299ZM83.4351 88.5605C82.3414 88.5605 81.5074 89.3057 81.3775 90.707H85.4517C85.3287 89.251 84.5221 88.5605 83.4351 88.5605ZM91.0367 95.1299C89.3961 95.1299 88.2682 94.3369 88.1314 93.1201H89.3482C89.5465 93.7354 90.1344 94.1387 91.0777 94.1387C92.0689 94.1387 92.773 93.667 92.773 92.9971V92.9834C92.773 92.4844 92.3971 92.1357 91.4879 91.917L90.3463 91.6436C88.9654 91.3154 88.3433 90.7139 88.3433 89.6543V89.6475C88.3433 88.4238 89.5191 87.501 91.0846 87.501C92.6295 87.501 93.7027 88.2734 93.8668 89.4766H92.6978C92.5406 88.8955 91.9664 88.4922 91.0777 88.4922C90.2027 88.4922 89.5601 88.9434 89.5601 89.5928V89.6064C89.5601 90.1055 89.9293 90.4199 90.7974 90.6318L91.9322 90.9053C93.3199 91.2402 93.9898 91.8418 93.9898 92.8945V92.9082C93.9898 94.2207 92.7115 95.1299 91.0367 95.1299ZM98.2281 95.1299C96.5875 95.1299 95.4596 94.3369 95.3228 93.1201H96.5396C96.7379 93.7354 97.3258 94.1387 98.2691 94.1387C99.2603 94.1387 99.9644 93.667 99.9644 92.9971V92.9834C99.9644 92.4844 99.5885 92.1357 98.6793 91.917L97.5377 91.6436C96.1568 91.3154 95.5348 90.7139 95.5348 89.6543V89.6475C95.5348 88.4238 96.7105 87.501 98.276 87.501C99.8209 87.501 100.894 88.2734 101.058 89.4766H99.8892C99.732 88.8955 99.1578 88.4922 98.2691 88.4922C97.3941 88.4922 96.7515 88.9434 96.7515 89.5928V89.6064C96.7515 90.1055 97.1207 90.4199 97.9889 90.6318L99.1236 90.9053C100.511 91.2402 101.181 91.8418 101.181 92.8945V92.9082C101.181 94.2207 99.9029 95.1299 98.2281 95.1299ZM107.115 95V85.1357H113.103V86.2432H108.345V89.6338H112.713V90.7275H108.345V95H107.115ZM118.004 95.1299C115.906 95.1299 114.607 93.6807 114.607 91.3223V91.3086C114.607 88.9434 115.906 87.501 118.004 87.501C120.103 87.501 121.402 88.9434 121.402 91.3086V91.3223C121.402 93.6807 120.103 95.1299 118.004 95.1299ZM118.004 94.0771C119.399 94.0771 120.185 93.0586 120.185 91.3223V91.3086C120.185 89.5654 119.399 88.5537 118.004 88.5537C116.61 88.5537 115.824 89.5654 115.824 91.3086V91.3223C115.824 93.0586 116.61 94.0771 118.004 94.0771ZM126.262 95.1299C124.198 95.1299 122.879 93.6328 122.879 91.2949V91.2812C122.879 88.9912 124.191 87.501 126.255 87.501C128.046 87.501 129.12 88.5332 129.338 89.8457L129.345 89.8867H128.163L128.156 89.8662C127.971 89.1416 127.315 88.5537 126.255 88.5537C124.929 88.5537 124.095 89.6201 124.095 91.2812V91.2949C124.095 92.9902 124.943 94.0771 126.255 94.0771C127.247 94.0771 127.876 93.6396 128.149 92.8193L128.163 92.7783L129.338 92.7715L129.325 92.8467C129.024 94.1797 128.033 95.1299 126.262 95.1299ZM133.549 95.1299C131.875 95.1299 131.013 94.1455 131.013 92.4023V87.6309H132.203V92.1152C132.203 93.4414 132.681 94.0771 133.857 94.0771C135.156 94.0771 135.846 93.2842 135.846 91.9922V87.6309H137.036V95H135.846V93.8994H135.737C135.375 94.6855 134.629 95.1299 133.549 95.1299ZM141.787 95.1299C140.146 95.1299 139.018 94.3369 138.881 93.1201H140.098C140.296 93.7354 140.884 94.1387 141.828 94.1387C142.819 94.1387 143.523 93.667 143.523 92.9971V92.9834C143.523 92.4844 143.147 92.1357 142.238 91.917L141.096 91.6436C139.715 91.3154 139.093 90.7139 139.093 89.6543V89.6475C139.093 88.4238 140.269 87.501 141.835 87.501C143.379 87.501 144.453 88.2734 144.617 89.4766H143.448C143.291 88.8955 142.716 88.4922 141.828 88.4922C140.953 88.4922 140.31 88.9434 140.31 89.5928V89.6064C140.31 90.1055 140.679 90.4199 141.547 90.6318L142.682 90.9053C144.07 91.2402 144.74 91.8418 144.74 92.8945V92.9082C144.74 94.2207 143.462 95.1299 141.787 95.1299ZM151.152 86.209C150.701 86.209 150.332 85.8398 150.332 85.3887C150.332 84.9375 150.701 84.5684 151.152 84.5684C151.603 84.5684 151.972 84.9375 151.972 85.3887C151.972 85.8398 151.603 86.209 151.152 86.209ZM150.55 95V87.6309H151.74V95H150.55ZM153.982 95V87.6309H155.171V88.7383H155.281C155.65 87.959 156.34 87.501 157.427 87.501C159.082 87.501 160.004 88.4785 160.004 90.2285V95H158.815V90.5156C158.815 89.1895 158.268 88.5537 157.092 88.5537C155.917 88.5537 155.171 89.3467 155.171 90.6387V95H153.982ZM170.217 95.2324C167.538 95.2324 165.863 93.25 165.863 90.0781V90.0645C165.863 86.8857 167.531 84.9033 170.211 84.9033C172.289 84.9033 173.909 86.209 174.203 88.1025L174.196 88.1162H172.959L172.952 88.1025C172.624 86.8379 171.571 86.0381 170.211 86.0381C168.317 86.0381 167.128 87.5967 167.128 90.0645V90.0781C167.128 92.5459 168.317 94.0977 170.217 94.0977C171.591 94.0977 172.637 93.3936 172.945 92.2588L172.959 92.2451H174.203V92.2588C173.875 94.0635 172.316 95.2324 170.217 95.2324ZM176.117 95V87.6309H177.306V88.7246H177.416C177.696 87.9521 178.386 87.501 179.384 87.501C179.61 87.501 179.863 87.5283 179.979 87.5488V88.7041C179.733 88.6631 179.507 88.6357 179.248 88.6357C178.113 88.6357 177.306 89.3535 177.306 90.4336V95H176.117ZM182.146 97.584C181.989 97.584 181.784 97.5703 181.62 97.543V96.5654C181.763 96.5928 181.948 96.5996 182.112 96.5996C182.789 96.5996 183.199 96.292 183.465 95.4443L183.602 95.0068L180.875 87.6309H182.146L184.17 93.6943H184.279L186.296 87.6309H187.546L184.669 95.4512C184.06 97.1055 183.452 97.584 182.146 97.584ZM189.119 97.4609V87.6309H190.308V88.8066H190.418C190.869 87.9863 191.689 87.501 192.714 87.501C194.581 87.501 195.804 89.0117 195.804 91.3086V91.3223C195.804 93.6328 194.587 95.1299 192.714 95.1299C191.703 95.1299 190.821 94.624 190.418 93.8379H190.308V97.4609H189.119ZM192.441 94.0771C193.788 94.0771 194.587 93.0381 194.587 91.3223V91.3086C194.587 89.5928 193.788 88.5537 192.441 88.5537C191.101 88.5537 190.281 89.6064 190.281 91.3086V91.3223C190.281 93.0244 191.101 94.0771 192.441 94.0771ZM200.282 95.0547C198.764 95.0547 198.129 94.4941 198.129 93.0859V88.6152H196.966V87.6309H198.129V85.7236H199.359V87.6309H200.972V88.6152H199.359V92.7852C199.359 93.6533 199.66 94.002 200.425 94.002C200.637 94.002 200.754 93.9951 200.972 93.9746V94.9863C200.74 95.0273 200.514 95.0547 200.282 95.0547ZM205.669 95.1299C203.57 95.1299 202.271 93.6807 202.271 91.3223V91.3086C202.271 88.9434 203.57 87.501 205.669 87.501C207.767 87.501 209.066 88.9434 209.066 91.3086V91.3223C209.066 93.6807 207.767 95.1299 205.669 95.1299ZM205.669 94.0771C207.063 94.0771 207.849 93.0586 207.849 91.3223V91.3086C207.849 89.5654 207.063 88.5537 205.669 88.5537C204.274 88.5537 203.488 89.5654 203.488 91.3086V91.3223C203.488 93.0586 204.274 94.0771 205.669 94.0771Z" fill="#BFDBFE"/>
<path d="M27.9641 122.812L24.0734 118.922C23.8391 118.688 23.8391 118.289 24.0734 118.055L24.9172 117.211C25.1516 116.977 25.5266 116.977 25.7609 117.211L28.4094 119.836L34.0344 114.211C34.2687 113.977 34.6437 113.977 34.8781 114.211L35.7219 115.055C35.9562 115.289 35.9562 115.688 35.7219 115.922L28.8312 122.812C28.5969 123.047 28.1984 123.047 27.9641 122.812Z" fill="#60A5FA"/>
<path d="M48.2425 123.232C45.5628 123.232 43.888 121.25 43.888 118.078V118.064C43.888 114.886 45.556 112.903 48.2357 112.903C50.3138 112.903 51.9339 114.209 52.2279 116.103L52.221 116.116H50.9837L50.9769 116.103C50.6488 114.838 49.596 114.038 48.2357 114.038C46.3421 114.038 45.1527 115.597 45.1527 118.064V118.078C45.1527 120.546 46.3421 122.098 48.2425 122.098C49.6165 122.098 50.6624 121.394 50.97 120.259L50.9837 120.245H52.2279V120.259C51.8997 122.063 50.3411 123.232 48.2425 123.232ZM57.1702 123.13C55.0716 123.13 53.7728 121.681 53.7728 119.322V119.309C53.7728 116.943 55.0716 115.501 57.1702 115.501C59.2689 115.501 60.5677 116.943 60.5677 119.309V119.322C60.5677 121.681 59.2689 123.13 57.1702 123.13ZM57.1702 122.077C58.5648 122.077 59.3509 121.059 59.3509 119.322V119.309C59.3509 117.565 58.5648 116.554 57.1702 116.554C55.7757 116.554 54.9896 117.565 54.9896 119.309V119.322C54.9896 121.059 55.7757 122.077 57.1702 122.077ZM62.4134 123V115.631H63.6029V116.752H63.7122C64.0404 115.959 64.7376 115.501 65.7015 115.501C66.6995 115.501 67.3968 116.027 67.7386 116.793H67.848C68.2445 116.014 69.0853 115.501 70.1038 115.501C71.6077 115.501 72.4486 116.362 72.4486 117.907V123H71.2591V118.181C71.2591 117.094 70.7601 116.554 69.721 116.554C68.6956 116.554 68.0189 117.326 68.0189 118.263V123H66.8294V117.996C66.8294 117.121 66.2279 116.554 65.2982 116.554C64.3343 116.554 63.6029 117.395 63.6029 118.434V123H62.4134ZM74.595 123V115.631H75.7845V116.752H75.8939C76.222 115.959 76.9193 115.501 77.8831 115.501C78.8812 115.501 79.5784 116.027 79.9202 116.793H80.0296C80.4261 116.014 81.2669 115.501 82.2855 115.501C83.7894 115.501 84.6302 116.362 84.6302 117.907V123H83.4407V118.181C83.4407 117.094 82.9417 116.554 81.9027 116.554C80.8773 116.554 80.2005 117.326 80.2005 118.263V123H79.0111V117.996C79.0111 117.121 78.4095 116.554 77.4798 116.554C76.5159 116.554 75.7845 117.395 75.7845 118.434V123H74.595ZM89.2445 123.13C87.5696 123.13 86.7083 122.146 86.7083 120.402V115.631H87.8978V120.115C87.8978 121.441 88.3763 122.077 89.5521 122.077C90.8509 122.077 91.5413 121.284 91.5413 119.992V115.631H92.7308V123H91.5413V121.899H91.432C91.0696 122.686 90.3245 123.13 89.2445 123.13ZM94.9525 123V115.631H96.1419V116.738H96.2513C96.6204 115.959 97.3109 115.501 98.3978 115.501C100.052 115.501 100.975 116.479 100.975 118.229V123H99.7855V118.516C99.7855 117.189 99.2386 116.554 98.0628 116.554C96.887 116.554 96.1419 117.347 96.1419 118.639V123H94.9525ZM103.757 114.209C103.306 114.209 102.937 113.84 102.937 113.389C102.937 112.938 103.306 112.568 103.757 112.568C104.208 112.568 104.577 112.938 104.577 113.389C104.577 113.84 104.208 114.209 103.757 114.209ZM103.156 123V115.631H104.345V123H103.156ZM109.205 123.055C107.688 123.055 107.052 122.494 107.052 121.086V116.615H105.89V115.631H107.052V113.724H108.283V115.631H109.896V116.615H108.283V120.785C108.283 121.653 108.583 122.002 109.349 122.002C109.561 122.002 109.677 121.995 109.896 121.975V122.986C109.663 123.027 109.438 123.055 109.205 123.055ZM112.302 125.584C112.145 125.584 111.94 125.57 111.776 125.543V124.565C111.919 124.593 112.104 124.6 112.268 124.6C112.945 124.6 113.355 124.292 113.621 123.444L113.758 123.007L111.031 115.631H112.302L114.326 121.694H114.435L116.451 115.631H117.702L114.825 123.451C114.216 125.105 113.608 125.584 112.302 125.584ZM126.596 123.232C124.436 123.232 123.041 122.098 122.898 120.491L122.891 120.416H124.121L124.128 120.491C124.217 121.476 125.243 122.098 126.664 122.098C128.004 122.098 128.982 121.407 128.982 120.402V120.396C128.982 119.575 128.414 119.015 127.061 118.714L125.967 118.475C123.992 118.037 123.137 117.128 123.137 115.699V115.692C123.144 114.059 124.573 112.903 126.61 112.903C128.578 112.903 129.952 114.065 130.055 115.535L130.062 115.631H128.831L128.818 115.542C128.681 114.674 127.861 114.031 126.576 114.038C125.345 114.045 124.395 114.626 124.395 115.658V115.665C124.395 116.451 124.935 116.984 126.275 117.278L127.368 117.524C129.426 117.982 130.24 118.81 130.24 120.231V120.238C130.24 122.084 128.797 123.232 126.596 123.232ZM132.769 114.209C132.318 114.209 131.949 113.84 131.949 113.389C131.949 112.938 132.318 112.568 132.769 112.568C133.22 112.568 133.589 112.938 133.589 113.389C133.589 113.84 133.22 114.209 132.769 114.209ZM132.167 123V115.631H133.357V123H132.167ZM135.428 123V122.139L139.68 116.725V116.615H135.435V115.631H141.081V116.513L136.85 121.906V122.016H141.102V123H135.428ZM145.949 123.13C143.843 123.13 142.572 121.653 142.572 119.343V119.336C142.572 117.06 143.87 115.501 145.873 115.501C147.876 115.501 149.093 116.991 149.093 119.192V119.657H143.788C143.823 121.182 144.663 122.07 145.976 122.07C146.974 122.07 147.589 121.599 147.787 121.154L147.815 121.093H149.004L148.991 121.147C148.738 122.146 147.685 123.13 145.949 123.13ZM145.867 116.561C144.773 116.561 143.939 117.306 143.809 118.707H147.883C147.76 117.251 146.953 116.561 145.867 116.561Z" fill="#BFDBFE"/>
<path d="M282.305 38.8125L278.414 34.9219C278.18 34.6875 278.18 34.2891 278.414 34.0547L279.258 33.2109C279.492 32.9766 279.867 32.9766 280.102 33.2109L282.75 35.8359L288.375 30.2109C288.609 29.9766 288.984 29.9766 289.219 30.2109L290.063 31.0547C290.297 31.2891 290.297 31.6875 290.063 31.9219L283.172 38.8125C282.938 39.0469 282.539 39.0469 282.305 38.8125Z" fill="#60A5FA"/>
<path d="M298.663 39V29.1357H302.381C304.234 29.1357 305.547 30.4141 305.547 32.2871V32.3008C305.547 34.1738 304.234 35.4795 302.381 35.4795H299.893V39H298.663ZM302.067 30.2295H299.893V34.3857H302.067C303.475 34.3857 304.289 33.6133 304.289 32.3145V32.3008C304.289 31.002 303.475 30.2295 302.067 30.2295ZM307.413 39V31.6309H308.602V32.7246H308.712C308.992 31.9521 309.682 31.501 310.68 31.501C310.906 31.501 311.159 31.5283 311.275 31.5488V32.7041C311.029 32.6631 310.803 32.6357 310.544 32.6357C309.409 32.6357 308.602 33.3535 308.602 34.4336V39H307.413ZM313.374 30.209C312.922 30.209 312.553 29.8398 312.553 29.3887C312.553 28.9375 312.922 28.5684 313.374 28.5684C313.825 28.5684 314.194 28.9375 314.194 29.3887C314.194 29.8398 313.825 30.209 313.374 30.209ZM312.772 39V31.6309H313.962V39H312.772ZM316.204 39V31.6309H317.393V32.752H317.503C317.831 31.959 318.528 31.501 319.492 31.501C320.49 31.501 321.187 32.0273 321.529 32.793H321.638C322.035 32.0137 322.876 31.501 323.894 31.501C325.398 31.501 326.239 32.3623 326.239 33.9072V39H325.049V34.1807C325.049 33.0938 324.55 32.5537 323.511 32.5537C322.486 32.5537 321.809 33.3262 321.809 34.2627V39H320.62V33.9961C320.62 33.1211 320.018 32.5537 319.089 32.5537C318.125 32.5537 317.393 33.3945 317.393 34.4336V39H316.204ZM330.409 39.1299C329.007 39.1299 327.948 38.2822 327.948 36.9424V36.9287C327.948 35.6162 328.919 34.8574 330.634 34.7549L332.747 34.625V33.9551C332.747 33.0459 332.193 32.5537 331.092 32.5537C330.211 32.5537 329.63 32.8818 329.438 33.4561L329.431 33.4766H328.242L328.249 33.4355C328.44 32.2803 329.561 31.501 331.133 31.501C332.931 31.501 333.936 32.4238 333.936 33.9551V39H332.747V37.9131H332.637C332.172 38.6992 331.4 39.1299 330.409 39.1299ZM329.165 36.915C329.165 37.6602 329.8 38.0977 330.655 38.0977C331.865 38.0977 332.747 37.3047 332.747 36.252V35.582L330.778 35.7051C329.657 35.7734 329.165 36.1699 329.165 36.9014V36.915ZM336.11 39V31.6309H337.299V32.7246H337.409C337.689 31.9521 338.38 31.501 339.378 31.501C339.603 31.501 339.856 31.5283 339.972 31.5488V32.7041C339.726 32.6631 339.501 32.6357 339.241 32.6357C338.106 32.6357 337.299 33.3535 337.299 34.4336V39H336.11ZM342.139 41.584C341.982 41.584 341.777 41.5703 341.613 41.543V40.5654C341.756 40.5928 341.941 40.5996 342.105 40.5996C342.782 40.5996 343.192 40.292 343.459 39.4443L343.595 39.0068L340.868 31.6309H342.139L344.163 37.6943H344.272L346.289 31.6309H347.54L344.662 39.4512C344.053 41.1055 343.445 41.584 342.139 41.584ZM353.2 39V29.1357H354.396L359.749 36.8125H359.858V29.1357H361.075V39H359.879L354.526 31.3506H354.417V39H353.2ZM365.464 39.1299C364.062 39.1299 363.003 38.2822 363.003 36.9424V36.9287C363.003 35.6162 363.973 34.8574 365.689 34.7549L367.801 34.625V33.9551C367.801 33.0459 367.248 32.5537 366.147 32.5537C365.265 32.5537 364.684 32.8818 364.493 33.4561L364.486 33.4766H363.297L363.303 33.4355C363.495 32.2803 364.616 31.501 366.188 31.501C367.986 31.501 368.991 32.4238 368.991 33.9551V39H367.801V37.9131H367.692C367.227 38.6992 366.455 39.1299 365.464 39.1299ZM364.219 36.915C364.219 37.6602 364.855 38.0977 365.71 38.0977C366.92 38.0977 367.801 37.3047 367.801 36.252V35.582L365.833 35.7051C364.712 35.7734 364.219 36.1699 364.219 36.9014V36.915ZM371.165 39V31.6309H372.354V32.752H372.464C372.792 31.959 373.489 31.501 374.453 31.501C375.451 31.501 376.148 32.0273 376.49 32.793H376.599C376.996 32.0137 377.837 31.501 378.855 31.501C380.359 31.501 381.2 32.3623 381.2 33.9072V39H380.01V34.1807C380.01 33.0938 379.511 32.5537 378.472 32.5537C377.447 32.5537 376.77 33.3262 376.77 34.2627V39H375.581V33.9961C375.581 33.1211 374.979 32.5537 374.049 32.5537C373.086 32.5537 372.354 33.3945 372.354 34.4336V39H371.165ZM386.354 39.1299C384.249 39.1299 382.977 37.6533 382.977 35.3428V35.3359C382.977 33.0596 384.276 31.501 386.279 31.501C388.282 31.501 389.499 32.9912 389.499 35.1924V35.6572H384.194C384.228 37.1816 385.069 38.0703 386.381 38.0703C387.38 38.0703 387.995 37.5986 388.193 37.1543L388.22 37.0928H389.41L389.396 37.1475C389.143 38.1455 388.09 39.1299 386.354 39.1299ZM386.272 32.5605C385.178 32.5605 384.344 33.3057 384.214 34.707H388.289C388.166 33.251 387.359 32.5605 386.272 32.5605ZM397.305 39.1299C395.904 39.1299 394.844 38.2822 394.844 36.9424V36.9287C394.844 35.6162 395.815 34.8574 397.531 34.7549L399.643 34.625V33.9551C399.643 33.0459 399.089 32.5537 397.989 32.5537C397.107 32.5537 396.526 32.8818 396.335 33.4561L396.328 33.4766H395.138L395.145 33.4355C395.337 32.2803 396.458 31.501 398.03 31.501C399.828 31.501 400.833 32.4238 400.833 33.9551V39H399.643V37.9131H399.534C399.069 38.6992 398.297 39.1299 397.305 39.1299ZM396.061 36.915C396.061 37.6602 396.697 38.0977 397.551 38.0977C398.761 38.0977 399.643 37.3047 399.643 36.252V35.582L397.674 35.7051C396.553 35.7734 396.061 36.1699 396.061 36.9014V36.915ZM403.006 39V31.6309H404.196V32.7383H404.305C404.674 31.959 405.365 31.501 406.452 31.501C408.106 31.501 409.029 32.4785 409.029 34.2285V39H407.839V34.5156C407.839 33.1895 407.293 32.5537 406.117 32.5537C404.941 32.5537 404.196 33.3467 404.196 34.6387V39H403.006ZM413.903 39.1299C412.037 39.1299 410.813 37.6191 410.813 35.3223V35.3086C410.813 32.998 412.03 31.501 413.903 31.501C414.915 31.501 415.797 32.0068 416.2 32.793H416.309V28.7051H417.499V39H416.309V37.8242H416.2C415.749 38.6445 414.928 39.1299 413.903 39.1299ZM414.176 38.0771C415.516 38.0771 416.337 37.0244 416.337 35.3223V35.3086C416.337 33.6064 415.516 32.5537 414.176 32.5537C412.83 32.5537 412.03 33.5928 412.03 35.3086V35.3223C412.03 37.0381 412.83 38.0771 414.176 38.0771ZM427.841 39.2324C425.162 39.2324 423.487 37.25 423.487 34.0781V34.0645C423.487 30.8857 425.155 28.9033 427.835 28.9033C429.913 28.9033 431.533 30.209 431.827 32.1025L431.82 32.1162H430.583L430.576 32.1025C430.248 30.8379 429.195 30.0381 427.835 30.0381C425.941 30.0381 424.752 31.5967 424.752 34.0645V34.0781C424.752 36.5459 425.941 38.0977 427.841 38.0977C429.215 38.0977 430.261 37.3936 430.569 36.2588L430.583 36.2451H431.827V36.2588C431.499 38.0635 429.94 39.2324 427.841 39.2324ZM436.769 39.1299C434.671 39.1299 433.372 37.6807 433.372 35.3223V35.3086C433.372 32.9434 434.671 31.501 436.769 31.501C438.868 31.501 440.167 32.9434 440.167 35.3086V35.3223C440.167 37.6807 438.868 39.1299 436.769 39.1299ZM436.769 38.0771C438.164 38.0771 438.95 37.0586 438.95 35.3223V35.3086C438.95 33.5654 438.164 32.5537 436.769 32.5537C435.375 32.5537 434.589 33.5654 434.589 35.3086V35.3223C434.589 37.0586 435.375 38.0771 436.769 38.0771ZM442.012 39V31.6309H443.202V32.7383H443.311C443.68 31.959 444.371 31.501 445.458 31.501C447.112 31.501 448.035 32.4785 448.035 34.2285V39H446.845V34.5156C446.845 33.1895 446.298 32.5537 445.123 32.5537C443.947 32.5537 443.202 33.3467 443.202 34.6387V39H442.012ZM452.806 39.0547C451.289 39.0547 450.653 38.4941 450.653 37.0859V32.6152H449.491V31.6309H450.653V29.7236H451.883V31.6309H453.497V32.6152H451.883V36.7852C451.883 37.6533 452.184 38.002 452.95 38.002C453.162 38.002 453.278 37.9951 453.497 37.9746V38.9863C453.264 39.0273 453.039 39.0547 452.806 39.0547ZM457.297 39.1299C455.896 39.1299 454.837 38.2822 454.837 36.9424V36.9287C454.837 35.6162 455.807 34.8574 457.523 34.7549L459.635 34.625V33.9551C459.635 33.0459 459.082 32.5537 457.981 32.5537C457.099 32.5537 456.518 32.8818 456.327 33.4561L456.32 33.4766H455.13L455.137 33.4355C455.329 32.2803 456.45 31.501 458.022 31.501C459.82 31.501 460.825 32.4238 460.825 33.9551V39H459.635V37.9131H459.526C459.061 38.6992 458.289 39.1299 457.297 39.1299ZM456.053 36.915C456.053 37.6602 456.689 38.0977 457.544 38.0977C458.754 38.0977 459.635 37.3047 459.635 36.252V35.582L457.667 35.7051C456.546 35.7734 456.053 36.1699 456.053 36.9014V36.915ZM466.013 39.1299C463.949 39.1299 462.63 37.6328 462.63 35.2949V35.2812C462.63 32.9912 463.942 31.501 466.006 31.501C467.797 31.501 468.871 32.5332 469.089 33.8457L469.096 33.8867H467.914L467.907 33.8662C467.722 33.1416 467.066 32.5537 466.006 32.5537C464.68 32.5537 463.846 33.6201 463.846 35.2812V35.2949C463.846 36.9902 464.694 38.0771 466.006 38.0771C466.998 38.0771 467.627 37.6396 467.9 36.8193L467.914 36.7783L469.089 36.7715L469.076 36.8467C468.775 38.1797 467.784 39.1299 466.013 39.1299ZM473.588 39.0547C472.07 39.0547 471.434 38.4941 471.434 37.0859V32.6152H470.272V31.6309H471.434V29.7236H472.665V31.6309H474.278V32.6152H472.665V36.7852C472.665 37.6533 472.965 38.002 473.731 38.002C473.943 38.002 474.059 37.9951 474.278 37.9746V38.9863C474.046 39.0273 473.82 39.0547 473.588 39.0547ZM480.143 39V29.1357H486.255V30.2432H481.374V33.4082H486.002V34.502H481.374V37.8926H486.255V39H480.143ZM488.333 39V31.6309H489.522V32.752H489.631C489.96 31.959 490.657 31.501 491.621 31.501C492.619 31.501 493.316 32.0273 493.658 32.793H493.767C494.164 32.0137 495.005 31.501 496.023 31.501C497.527 31.501 498.368 32.3623 498.368 33.9072V39H497.178V34.1807C497.178 33.0938 496.679 32.5537 495.64 32.5537C494.615 32.5537 493.938 33.3262 493.938 34.2627V39H492.749V33.9961C492.749 33.1211 492.147 32.5537 491.217 32.5537C490.254 32.5537 489.522 33.3945 489.522 34.4336V39H488.333ZM502.538 39.1299C501.136 39.1299 500.077 38.2822 500.077 36.9424V36.9287C500.077 35.6162 501.047 34.8574 502.763 34.7549L504.876 34.625V33.9551C504.876 33.0459 504.322 32.5537 503.221 32.5537C502.339 32.5537 501.758 32.8818 501.567 33.4561L501.56 33.4766H500.371L500.378 33.4355C500.569 32.2803 501.69 31.501 503.262 31.501C505.06 31.501 506.065 32.4238 506.065 33.9551V39H504.876V37.9131H504.766C504.301 38.6992 503.529 39.1299 502.538 39.1299ZM501.294 36.915C501.294 37.6602 501.929 38.0977 502.784 38.0977C503.994 38.0977 504.876 37.3047 504.876 36.252V35.582L502.907 35.7051C501.786 35.7734 501.294 36.1699 501.294 36.9014V36.915ZM508.868 30.209C508.417 30.209 508.047 29.8398 508.047 29.3887C508.047 28.9375 508.417 28.5684 508.868 28.5684C509.319 28.5684 509.688 28.9375 509.688 29.3887C509.688 29.8398 509.319 30.209 508.868 30.209ZM508.266 39V31.6309H509.456V39H508.266ZM511.766 39V28.7051H512.956V39H511.766Z" fill="#BFDBFE"/>
<path d="M282.305 66.8125L278.414 62.9219C278.18 62.6875 278.18 62.2891 278.414 62.0547L279.258 61.2109C279.492 60.9766 279.867 60.9766 280.102 61.2109L282.75 63.8359L288.375 58.2109C288.609 57.9766 288.984 57.9766 289.219 58.2109L290.063 59.0547C290.297 59.2891 290.297 59.6875 290.063 59.9219L283.172 66.8125C282.938 67.0469 282.539 67.0469 282.305 66.8125Z" fill="#60A5FA"/>
<path d="M298.634 67V57.1357H302.407C304.218 57.1357 305.326 58.0859 305.326 59.5898V59.6035C305.326 60.6221 304.574 61.5518 303.624 61.7227V61.832C304.97 62.0029 305.825 62.9258 305.825 64.2246V64.2383C305.825 65.9678 304.581 67 302.482 67H298.634ZM302.147 58.2227H299.864V61.3877H301.833C303.323 61.3877 304.082 60.8545 304.082 59.8154V59.8018C304.082 58.8037 303.371 58.2227 302.147 58.2227ZM302.181 62.4473H299.864V65.9131H302.298C303.781 65.9131 304.56 65.3115 304.56 64.1768V64.1631C304.56 63.0283 303.754 62.4473 302.181 62.4473ZM311.068 67.2324C308.908 67.2324 307.513 66.0977 307.37 64.4912L307.363 64.416H308.593L308.6 64.4912C308.689 65.4756 309.715 66.0977 311.136 66.0977C312.476 66.0977 313.454 65.4072 313.454 64.4023V64.3955C313.454 63.5752 312.886 63.0146 311.533 62.7139L310.439 62.4746C308.464 62.0371 307.609 61.1279 307.609 59.6992V59.6924C307.616 58.0586 309.045 56.9033 311.082 56.9033C313.051 56.9033 314.425 58.0654 314.527 59.5352L314.534 59.6309H313.303L313.29 59.542C313.153 58.6738 312.333 58.0312 311.048 58.0381C309.817 58.0449 308.867 58.626 308.867 59.6582V59.665C308.867 60.4512 309.407 60.9844 310.747 61.2783L311.841 61.5244C313.898 61.9824 314.712 62.8096 314.712 64.2314V64.2383C314.712 66.084 313.269 67.2324 311.068 67.2324ZM320.734 67.2324C318.054 67.2324 316.38 65.25 316.38 62.0781V62.0645C316.38 58.8857 318.048 56.9033 320.727 56.9033C322.805 56.9033 324.426 58.209 324.719 60.1025L324.713 60.1162H323.475L323.468 60.1025C323.14 58.8379 322.088 58.0381 320.727 58.0381C318.834 58.0381 317.644 59.5967 317.644 62.0645V62.0781C317.644 64.5459 318.834 66.0977 320.734 66.0977C322.108 66.0977 323.154 65.3936 323.462 64.2588L323.475 64.2451H324.719V64.2588C324.391 66.0635 322.833 67.2324 320.734 67.2324ZM332.765 67L330.079 57.1357H331.364L333.326 65.1543H333.408L335.616 57.1357H336.86L339.068 65.1543H339.15L341.112 57.1357H342.397L339.711 67H338.549L336.279 59.2139H336.197L333.927 67H332.765ZM345.46 67.1299C344.058 67.1299 342.999 66.2822 342.999 64.9424V64.9287C342.999 63.6162 343.969 62.8574 345.685 62.7549L347.798 62.625V61.9551C347.798 61.0459 347.244 60.5537 346.143 60.5537C345.261 60.5537 344.68 60.8818 344.489 61.4561L344.482 61.4766H343.293L343.3 61.4355C343.491 60.2803 344.612 59.501 346.184 59.501C347.982 59.501 348.987 60.4238 348.987 61.9551V67H347.798V65.9131H347.688C347.223 66.6992 346.451 67.1299 345.46 67.1299ZM344.216 64.915C344.216 65.6602 344.851 66.0977 345.706 66.0977C346.916 66.0977 347.798 65.3047 347.798 64.252V63.582L345.829 63.7051C344.708 63.7734 344.216 64.1699 344.216 64.9014V64.915ZM351.229 67V56.7051H352.419V67H351.229ZM354.77 67V56.7051H355.96V67H354.77ZM361.251 67.1299C359.145 67.1299 357.874 65.6533 357.874 63.3428V63.3359C357.874 61.0596 359.173 59.501 361.176 59.501C363.178 59.501 364.395 60.9912 364.395 63.1924V63.6572H359.091C359.125 65.1816 359.966 66.0703 361.278 66.0703C362.276 66.0703 362.891 65.5986 363.09 65.1543L363.117 65.0928H364.306L364.293 65.1475C364.04 66.1455 362.987 67.1299 361.251 67.1299ZM361.169 60.5605C360.075 60.5605 359.241 61.3057 359.111 62.707H363.185C363.062 61.251 362.256 60.5605 361.169 60.5605ZM368.859 67.0547C367.342 67.0547 366.706 66.4941 366.706 65.0859V60.6152H365.544V59.6309H366.706V57.7236H367.936V59.6309H369.55V60.6152H367.936V64.7852C367.936 65.6533 368.237 66.002 369.003 66.002C369.215 66.002 369.331 65.9951 369.55 65.9746V66.9863C369.317 67.0273 369.092 67.0547 368.859 67.0547ZM374.629 67L378.265 57.1357H379.482L383.119 67H381.827L380.836 64.1768H376.912L375.921 67H374.629ZM378.819 58.7285L377.274 63.1309H380.473L378.928 58.7285H378.819ZM387.009 67.1299C385.142 67.1299 383.919 65.6191 383.919 63.3223V63.3086C383.919 60.998 385.135 59.501 387.009 59.501C388.02 59.501 388.902 60.0068 389.305 60.793H389.415V56.7051H390.604V67H389.415V65.8242H389.305C388.854 66.6445 388.034 67.1299 387.009 67.1299ZM387.282 66.0771C388.622 66.0771 389.442 65.0244 389.442 63.3223V63.3086C389.442 61.6064 388.622 60.5537 387.282 60.5537C385.935 60.5537 385.135 61.5928 385.135 63.3086V63.3223C385.135 65.0381 385.935 66.0771 387.282 66.0771ZM395.608 67.1299C393.742 67.1299 392.518 65.6191 392.518 63.3223V63.3086C392.518 60.998 393.735 59.501 395.608 59.501C396.62 59.501 397.502 60.0068 397.905 60.793H398.014V56.7051H399.204V67H398.014V65.8242H397.905C397.454 66.6445 396.634 67.1299 395.608 67.1299ZM395.882 66.0771C397.221 66.0771 398.042 65.0244 398.042 63.3223V63.3086C398.042 61.6064 397.221 60.5537 395.882 60.5537C394.535 60.5537 393.735 61.5928 393.735 63.3086V63.3223C393.735 65.0381 394.535 66.0771 395.882 66.0771ZM401.487 67V59.6309H402.676V60.7246H402.786C403.066 59.9521 403.757 59.501 404.755 59.501C404.98 59.501 405.233 59.5283 405.349 59.5488V60.7041C405.103 60.6631 404.878 60.6357 404.618 60.6357C403.483 60.6357 402.676 61.3535 402.676 62.4336V67H401.487ZM409.622 67.1299C407.516 67.1299 406.245 65.6533 406.245 63.3428V63.3359C406.245 61.0596 407.544 59.501 409.547 59.501C411.55 59.501 412.766 60.9912 412.766 63.1924V63.6572H407.462C407.496 65.1816 408.337 66.0703 409.649 66.0703C410.647 66.0703 411.262 65.5986 411.461 65.1543L411.488 65.0928H412.677L412.664 65.1475C412.411 66.1455 411.358 67.1299 409.622 67.1299ZM409.54 60.5605C408.446 60.5605 407.612 61.3057 407.482 62.707H411.556C411.433 61.251 410.627 60.5605 409.54 60.5605ZM417.141 67.1299C415.501 67.1299 414.373 66.3369 414.236 65.1201H415.453C415.651 65.7354 416.239 66.1387 417.182 66.1387C418.174 66.1387 418.878 65.667 418.878 64.9971V64.9834C418.878 64.4844 418.502 64.1357 417.593 63.917L416.451 63.6436C415.07 63.3154 414.448 62.7139 414.448 61.6543V61.6475C414.448 60.4238 415.624 59.501 417.189 59.501C418.734 59.501 419.807 60.2734 419.971 61.4766H418.802C418.645 60.8955 418.071 60.4922 417.182 60.4922C416.307 60.4922 415.665 60.9434 415.665 61.5928V61.6064C415.665 62.1055 416.034 62.4199 416.902 62.6318L418.037 62.9053C419.425 63.2402 420.094 63.8418 420.094 64.8945V64.9082C420.094 66.2207 418.816 67.1299 417.141 67.1299ZM424.333 67.1299C422.692 67.1299 421.564 66.3369 421.427 65.1201H422.644C422.843 65.7354 423.43 66.1387 424.374 66.1387C425.365 66.1387 426.069 65.667 426.069 64.9971V64.9834C426.069 64.4844 425.693 64.1357 424.784 63.917L423.642 63.6436C422.261 63.3154 421.639 62.7139 421.639 61.6543V61.6475C421.639 60.4238 422.815 59.501 424.381 59.501C425.926 59.501 426.999 60.2734 427.163 61.4766H425.994C425.837 60.8955 425.262 60.4922 424.374 60.4922C423.499 60.4922 422.856 60.9434 422.856 61.5928V61.6064C422.856 62.1055 423.225 62.4199 424.093 62.6318L425.228 62.9053C426.616 63.2402 427.286 63.8418 427.286 64.8945V64.9082C427.286 66.2207 426.008 67.1299 424.333 67.1299Z" fill="#BFDBFE"/>
<path d="M282.305 94.8125L278.414 90.9219C278.18 90.6875 278.18 90.2891 278.414 90.0547L279.258 89.2109C279.492 88.9766 279.867 88.9766 280.102 89.2109L282.75 91.8359L288.375 86.2109C288.609 85.9766 288.984 85.9766 289.219 86.2109L290.063 87.0547C290.297 87.2891 290.297 87.6875 290.063 87.9219L283.172 94.8125C282.938 95.0469 282.539 95.0469 282.305 94.8125Z" fill="#60A5FA"/>
<path d="M301.873 95.2324C299.713 95.2324 298.319 94.0977 298.175 92.4912L298.168 92.416H299.399L299.405 92.4912C299.494 93.4756 300.52 94.0977 301.942 94.0977C303.281 94.0977 304.259 93.4072 304.259 92.4023V92.3955C304.259 91.5752 303.692 91.0146 302.338 90.7139L301.244 90.4746C299.269 90.0371 298.414 89.1279 298.414 87.6992V87.6924C298.421 86.0586 299.85 84.9033 301.887 84.9033C303.856 84.9033 305.23 86.0654 305.332 87.5352L305.339 87.6309H304.109L304.095 87.542C303.958 86.6738 303.138 86.0312 301.853 86.0381C300.622 86.0449 299.672 86.626 299.672 87.6582V87.665C299.672 88.4512 300.212 88.9844 301.552 89.2783L302.646 89.5244C304.703 89.9824 305.517 90.8096 305.517 92.2314V92.2383C305.517 94.084 304.074 95.2324 301.873 95.2324ZM310.035 95.0547C308.518 95.0547 307.882 94.4941 307.882 93.0859V88.6152H306.72V87.6309H307.882V85.7236H309.113V87.6309H310.726V88.6152H309.113V92.7852C309.113 93.6533 309.413 94.002 310.179 94.002C310.391 94.002 310.507 93.9951 310.726 93.9746V94.9863C310.493 95.0273 310.268 95.0547 310.035 95.0547ZM312.503 95V87.6309H313.693V88.7246H313.802C314.082 87.9521 314.773 87.501 315.771 87.501C315.996 87.501 316.249 87.5283 316.365 87.5488V88.7041C316.119 88.6631 315.894 88.6357 315.634 88.6357C314.499 88.6357 313.693 89.3535 313.693 90.4336V95H312.503ZM319.859 95.1299C318.457 95.1299 317.398 94.2822 317.398 92.9424V92.9287C317.398 91.6162 318.368 90.8574 320.084 90.7549L322.196 90.625V89.9551C322.196 89.0459 321.643 88.5537 320.542 88.5537C319.66 88.5537 319.079 88.8818 318.888 89.4561L318.881 89.4766H317.692L317.698 89.4355C317.89 88.2803 319.011 87.501 320.583 87.501C322.381 87.501 323.386 88.4238 323.386 89.9551V95H322.196V93.9131H322.087C321.622 94.6992 320.85 95.1299 319.859 95.1299ZM318.614 92.915C318.614 93.6602 319.25 94.0977 320.105 94.0977C321.315 94.0977 322.196 93.3047 322.196 92.252V91.582L320.228 91.7051C319.107 91.7734 318.614 92.1699 318.614 92.9014V92.915ZM328.178 95.0547C326.66 95.0547 326.025 94.4941 326.025 93.0859V88.6152H324.863V87.6309H326.025V85.7236H327.255V87.6309H328.868V88.6152H327.255V92.7852C327.255 93.6533 327.556 94.002 328.321 94.002C328.533 94.002 328.65 93.9951 328.868 93.9746V94.9863C328.636 95.0273 328.41 95.0547 328.178 95.0547ZM333.544 95.1299C331.439 95.1299 330.167 93.6533 330.167 91.3428V91.3359C330.167 89.0596 331.466 87.501 333.469 87.501C335.472 87.501 336.689 88.9912 336.689 91.1924V91.6572H331.384C331.418 93.1816 332.259 94.0703 333.571 94.0703C334.57 94.0703 335.185 93.5986 335.383 93.1543L335.41 93.0928H336.6L336.586 93.1475C336.333 94.1455 335.28 95.1299 333.544 95.1299ZM333.462 88.5605C332.368 88.5605 331.534 89.3057 331.405 90.707H335.479C335.356 89.251 334.549 88.5605 333.462 88.5605ZM341.57 97.5977C339.792 97.5977 338.657 96.7979 338.473 95.5879L338.487 95.5811H339.717L339.724 95.5879C339.854 96.1484 340.51 96.5449 341.57 96.5449C342.889 96.5449 343.675 95.9229 343.675 94.8359V93.3457H343.566C343.101 94.1592 342.267 94.6172 341.255 94.6172C339.348 94.6172 338.165 93.1406 338.165 91.0762V91.0625C338.165 88.998 339.355 87.501 341.282 87.501C342.321 87.501 343.128 88.0137 343.579 88.8477H343.661V87.6309H344.851V94.8975C344.851 96.5449 343.579 97.5977 341.57 97.5977ZM341.515 93.5645C342.882 93.5645 343.702 92.5391 343.702 91.0762V91.0625C343.702 89.5996 342.875 88.5537 341.515 88.5537C340.148 88.5537 339.382 89.5996 339.382 91.0625V91.0762C339.382 92.5391 340.148 93.5645 341.515 93.5645ZM347.695 86.209C347.243 86.209 346.874 85.8398 346.874 85.3887C346.874 84.9375 347.243 84.5684 347.695 84.5684C348.146 84.5684 348.515 84.9375 348.515 85.3887C348.515 85.8398 348.146 86.209 347.695 86.209ZM347.093 95V87.6309H348.282V95H347.093ZM353.539 95.1299C351.475 95.1299 350.155 93.6328 350.155 91.2949V91.2812C350.155 88.9912 351.468 87.501 353.532 87.501C355.323 87.501 356.397 88.5332 356.615 89.8457L356.622 89.8867H355.44L355.433 89.8662C355.248 89.1416 354.592 88.5537 353.532 88.5537C352.206 88.5537 351.372 89.6201 351.372 91.2812V91.2949C351.372 92.9902 352.22 94.0771 353.532 94.0771C354.524 94.0771 355.153 93.6396 355.426 92.8193L355.44 92.7783L356.615 92.7715L356.602 92.8467C356.301 94.1797 355.31 95.1299 353.539 95.1299ZM366.418 95.2324C363.738 95.2324 362.064 93.25 362.064 90.0781V90.0645C362.064 86.8857 363.732 84.9033 366.411 84.9033C368.489 84.9033 370.11 86.209 370.404 88.1025L370.397 88.1162H369.159L369.153 88.1025C368.824 86.8379 367.772 86.0381 366.411 86.0381C364.518 86.0381 363.328 87.5967 363.328 90.0645V90.0781C363.328 92.5459 364.518 94.0977 366.418 94.0977C367.792 94.0977 368.838 93.3936 369.146 92.2588L369.159 92.2451H370.404V92.2588C370.075 94.0635 368.517 95.2324 366.418 95.2324ZM375.346 95.1299C373.247 95.1299 371.948 93.6807 371.948 91.3223V91.3086C371.948 88.9434 373.247 87.501 375.346 87.501C377.445 87.501 378.743 88.9434 378.743 91.3086V91.3223C378.743 93.6807 377.445 95.1299 375.346 95.1299ZM375.346 94.0771C376.74 94.0771 377.527 93.0586 377.527 91.3223V91.3086C377.527 89.5654 376.74 88.5537 375.346 88.5537C373.951 88.5537 373.165 89.5654 373.165 91.3086V91.3223C373.165 93.0586 373.951 94.0771 375.346 94.0771ZM380.657 95V84.7051H381.847V95H380.657ZM384.198 95V84.7051H385.388V95H384.198ZM389.695 95.1299C388.293 95.1299 387.234 94.2822 387.234 92.9424V92.9287C387.234 91.6162 388.204 90.8574 389.92 90.7549L392.032 90.625V89.9551C392.032 89.0459 391.479 88.5537 390.378 88.5537C389.496 88.5537 388.915 88.8818 388.724 89.4561L388.717 89.4766H387.528L387.534 89.4355C387.726 88.2803 388.847 87.501 390.419 87.501C392.217 87.501 393.222 88.4238 393.222 89.9551V95H392.032V93.9131H391.923C391.458 94.6992 390.686 95.1299 389.695 95.1299ZM388.45 92.915C388.45 93.6602 389.086 94.0977 389.941 94.0977C391.151 94.0977 392.032 93.3047 392.032 92.252V91.582L390.064 91.7051C388.943 91.7734 388.45 92.1699 388.45 92.9014V92.915ZM399.06 95.1299C398.034 95.1299 397.214 94.6445 396.763 93.8242H396.654V95H395.464V84.7051H396.654V88.793H396.763C397.166 88.0068 398.048 87.501 399.06 87.501C400.933 87.501 402.15 88.998 402.15 91.3086V91.3223C402.15 93.6191 400.926 95.1299 399.06 95.1299ZM398.786 94.0771C400.133 94.0771 400.933 93.0381 400.933 91.3223V91.3086C400.933 89.5928 400.133 88.5537 398.786 88.5537C397.446 88.5537 396.626 89.6064 396.626 91.3086V91.3223C396.626 93.0244 397.446 94.0771 398.786 94.0771ZM407.024 95.1299C404.925 95.1299 403.626 93.6807 403.626 91.3223V91.3086C403.626 88.9434 404.925 87.501 407.024 87.501C409.122 87.501 410.421 88.9434 410.421 91.3086V91.3223C410.421 93.6807 409.122 95.1299 407.024 95.1299ZM407.024 94.0771C408.418 94.0771 409.204 93.0586 409.204 91.3223V91.3086C409.204 89.5654 408.418 88.5537 407.024 88.5537C405.629 88.5537 404.843 89.5654 404.843 91.3086V91.3223C404.843 93.0586 405.629 94.0771 407.024 94.0771ZM412.267 95V87.6309H413.456V88.7246H413.566C413.846 87.9521 414.536 87.501 415.534 87.501C415.76 87.501 416.013 87.5283 416.129 87.5488V88.7041C415.883 88.6631 415.657 88.6357 415.398 88.6357C414.263 88.6357 413.456 89.3535 413.456 90.4336V95H412.267ZM419.622 95.1299C418.221 95.1299 417.161 94.2822 417.161 92.9424V92.9287C417.161 91.6162 418.132 90.8574 419.848 90.7549L421.96 90.625V89.9551C421.96 89.0459 421.406 88.5537 420.306 88.5537C419.424 88.5537 418.843 88.8818 418.652 89.4561L418.645 89.4766H417.455L417.462 89.4355C417.654 88.2803 418.775 87.501 420.347 87.501C422.145 87.501 423.15 88.4238 423.15 89.9551V95H421.96V93.9131H421.851C421.386 94.6992 420.613 95.1299 419.622 95.1299ZM418.378 92.915C418.378 93.6602 419.014 94.0977 419.868 94.0977C421.078 94.0977 421.96 93.3047 421.96 92.252V91.582L419.991 91.7051C418.87 91.7734 418.378 92.1699 418.378 92.9014V92.915ZM427.942 95.0547C426.424 95.0547 425.788 94.4941 425.788 93.0859V88.6152H424.626V87.6309H425.788V85.7236H427.019V87.6309H428.632V88.6152H427.019V92.7852C427.019 93.6533 427.32 94.002 428.085 94.002C428.297 94.002 428.413 93.9951 428.632 93.9746V94.9863C428.4 95.0273 428.174 95.0547 427.942 95.0547ZM431.038 86.209C430.587 86.209 430.218 85.8398 430.218 85.3887C430.218 84.9375 430.587 84.5684 431.038 84.5684C431.489 84.5684 431.859 84.9375 431.859 85.3887C431.859 85.8398 431.489 86.209 431.038 86.209ZM430.437 95V87.6309H431.626V95H430.437ZM436.897 95.1299C434.798 95.1299 433.499 93.6807 433.499 91.3223V91.3086C433.499 88.9434 434.798 87.501 436.897 87.501C438.995 87.501 440.294 88.9434 440.294 91.3086V91.3223C440.294 93.6807 438.995 95.1299 436.897 95.1299ZM436.897 94.0771C438.291 94.0771 439.077 93.0586 439.077 91.3223V91.3086C439.077 89.5654 438.291 88.5537 436.897 88.5537C435.502 88.5537 434.716 89.5654 434.716 91.3086V91.3223C434.716 93.0586 435.502 94.0771 436.897 94.0771ZM442.14 95V87.6309H443.329V88.7383H443.439C443.808 87.959 444.498 87.501 445.585 87.501C447.239 87.501 448.162 88.4785 448.162 90.2285V95H446.973V90.5156C446.973 89.1895 446.426 88.5537 445.25 88.5537C444.074 88.5537 443.329 89.3467 443.329 90.6387V95H442.14Z" fill="#BFDBFE"/>
<path d="M282.305 122.812L278.414 118.922C278.18 118.688 278.18 118.289 278.414 118.055L279.258 117.211C279.492 116.977 279.867 116.977 280.102 117.211L282.75 119.836L288.375 114.211C288.609 113.977 288.984 113.977 289.219 114.211L290.063 115.055C290.297 115.289 290.297 115.688 290.063 115.922L283.172 122.812C282.938 123.047 282.539 123.047 282.305 122.812Z" fill="#60A5FA"/>
<path d="M298.623 123V113.136H304.734V114.243H299.854V117.408H304.481V118.502H299.854V121.893H304.734V123H298.623ZM306.812 123V115.631H308.002V116.738H308.111C308.48 115.959 309.171 115.501 310.258 115.501C311.912 115.501 312.835 116.479 312.835 118.229V123H311.646V118.516C311.646 117.189 311.099 116.554 309.923 116.554C308.747 116.554 308.002 117.347 308.002 118.639V123H306.812ZM318.023 125.598C316.246 125.598 315.111 124.798 314.927 123.588L314.94 123.581H316.171L316.178 123.588C316.308 124.148 316.964 124.545 318.023 124.545C319.343 124.545 320.129 123.923 320.129 122.836V121.346H320.02C319.555 122.159 318.721 122.617 317.709 122.617C315.802 122.617 314.619 121.141 314.619 119.076V119.062C314.619 116.998 315.809 115.501 317.736 115.501C318.775 115.501 319.582 116.014 320.033 116.848H320.115V115.631H321.305V122.897C321.305 124.545 320.033 125.598 318.023 125.598ZM317.969 121.564C319.336 121.564 320.156 120.539 320.156 119.076V119.062C320.156 117.6 319.329 116.554 317.969 116.554C316.602 116.554 315.836 117.6 315.836 119.062V119.076C315.836 120.539 316.602 121.564 317.969 121.564ZM325.543 123.13C324.142 123.13 323.082 122.282 323.082 120.942V120.929C323.082 119.616 324.053 118.857 325.769 118.755L327.881 118.625V117.955C327.881 117.046 327.327 116.554 326.227 116.554C325.345 116.554 324.764 116.882 324.572 117.456L324.565 117.477H323.376L323.383 117.436C323.574 116.28 324.695 115.501 326.268 115.501C328.065 115.501 329.07 116.424 329.07 117.955V123H327.881V121.913H327.771C327.307 122.699 326.534 123.13 325.543 123.13ZM324.299 120.915C324.299 121.66 324.935 122.098 325.789 122.098C326.999 122.098 327.881 121.305 327.881 120.252V119.582L325.912 119.705C324.791 119.773 324.299 120.17 324.299 120.901V120.915ZM334.279 125.598C332.502 125.598 331.367 124.798 331.183 123.588L331.196 123.581H332.427L332.434 123.588C332.563 124.148 333.22 124.545 334.279 124.545C335.599 124.545 336.385 123.923 336.385 122.836V121.346H336.275C335.811 122.159 334.977 122.617 333.965 122.617C332.058 122.617 330.875 121.141 330.875 119.076V119.062C330.875 116.998 332.064 115.501 333.992 115.501C335.031 115.501 335.838 116.014 336.289 116.848H336.371V115.631H337.561V122.897C337.561 124.545 336.289 125.598 334.279 125.598ZM334.225 121.564C335.592 121.564 336.412 120.539 336.412 119.076V119.062C336.412 117.6 335.585 116.554 334.225 116.554C332.857 116.554 332.092 117.6 332.092 119.062V119.076C332.092 120.539 332.857 121.564 334.225 121.564ZM342.783 123.13C340.678 123.13 339.406 121.653 339.406 119.343V119.336C339.406 117.06 340.705 115.501 342.708 115.501C344.711 115.501 345.928 116.991 345.928 119.192V119.657H340.623C340.657 121.182 341.498 122.07 342.811 122.07C343.809 122.07 344.424 121.599 344.622 121.154L344.649 121.093H345.839L345.825 121.147C345.572 122.146 344.52 123.13 342.783 123.13ZM342.701 116.561C341.607 116.561 340.773 117.306 340.644 118.707H344.718C344.595 117.251 343.788 116.561 342.701 116.561ZM347.773 123V115.631H348.963V116.752H349.072C349.4 115.959 350.098 115.501 351.062 115.501C352.06 115.501 352.757 116.027 353.099 116.793H353.208C353.604 116.014 354.445 115.501 355.464 115.501C356.968 115.501 357.809 116.362 357.809 117.907V123H356.619V118.181C356.619 117.094 356.12 116.554 355.081 116.554C354.056 116.554 353.379 117.326 353.379 118.263V123H352.189V117.996C352.189 117.121 351.588 116.554 350.658 116.554C349.694 116.554 348.963 117.395 348.963 118.434V123H347.773ZM362.963 123.13C360.857 123.13 359.586 121.653 359.586 119.343V119.336C359.586 117.06 360.885 115.501 362.888 115.501C364.891 115.501 366.107 116.991 366.107 119.192V119.657H360.803C360.837 121.182 361.678 122.07 362.99 122.07C363.988 122.07 364.604 121.599 364.802 121.154L364.829 121.093H366.019L366.005 121.147C365.752 122.146 364.699 123.13 362.963 123.13ZM362.881 116.561C361.787 116.561 360.953 117.306 360.823 118.707H364.897C364.774 117.251 363.968 116.561 362.881 116.561ZM367.953 123V115.631H369.143V116.738H369.252C369.621 115.959 370.312 115.501 371.398 115.501C373.053 115.501 373.976 116.479 373.976 118.229V123H372.786V118.516C372.786 117.189 372.239 116.554 371.063 116.554C369.888 116.554 369.143 117.347 369.143 118.639V123H367.953ZM378.747 123.055C377.229 123.055 376.594 122.494 376.594 121.086V116.615H375.432V115.631H376.594V113.724H377.824V115.631H379.437V116.615H377.824V120.785C377.824 121.653 378.125 122.002 378.891 122.002C379.103 122.002 379.219 121.995 379.437 121.975V122.986C379.205 123.027 378.979 123.055 378.747 123.055ZM384.517 123L388.153 113.136H389.37L393.007 123H391.715L390.724 120.177H386.8L385.809 123H384.517ZM388.707 114.729L387.162 119.131H390.361L388.816 114.729H388.707ZM397.19 123.13C395.126 123.13 393.807 121.633 393.807 119.295V119.281C393.807 116.991 395.119 115.501 397.184 115.501C398.975 115.501 400.048 116.533 400.267 117.846L400.273 117.887H399.091L399.084 117.866C398.899 117.142 398.243 116.554 397.184 116.554C395.857 116.554 395.023 117.62 395.023 119.281V119.295C395.023 120.99 395.871 122.077 397.184 122.077C398.175 122.077 398.804 121.64 399.077 120.819L399.091 120.778L400.267 120.771L400.253 120.847C399.952 122.18 398.961 123.13 397.19 123.13ZM404.765 123.055C403.247 123.055 402.611 122.494 402.611 121.086V116.615H401.449V115.631H402.611V113.724H403.842V115.631H405.455V116.615H403.842V120.785C403.842 121.653 404.143 122.002 404.908 122.002C405.12 122.002 405.236 121.995 405.455 121.975V122.986C405.223 123.027 404.997 123.055 404.765 123.055ZM407.861 114.209C407.41 114.209 407.041 113.84 407.041 113.389C407.041 112.938 407.41 112.568 407.861 112.568C408.312 112.568 408.682 112.938 408.682 113.389C408.682 113.84 408.312 114.209 407.861 114.209ZM407.26 123V115.631H408.449V123H407.26ZM412.776 123L410.049 115.631H411.307L413.323 121.701H413.433L415.449 115.631H416.707L413.979 123H412.776ZM418.908 114.209C418.457 114.209 418.088 113.84 418.088 113.389C418.088 112.938 418.457 112.568 418.908 112.568C419.359 112.568 419.729 112.938 419.729 113.389C419.729 113.84 419.359 114.209 418.908 114.209ZM418.307 123V115.631H419.496V123H418.307ZM424.356 123.055C422.839 123.055 422.203 122.494 422.203 121.086V116.615H421.041V115.631H422.203V113.724H423.434V115.631H425.047V116.615H423.434V120.785C423.434 121.653 423.734 122.002 424.5 122.002C424.712 122.002 424.828 121.995 425.047 121.975V122.986C424.814 123.027 424.589 123.055 424.356 123.055ZM427.453 114.209C427.002 114.209 426.633 113.84 426.633 113.389C426.633 112.938 427.002 112.568 427.453 112.568C427.904 112.568 428.273 112.938 428.273 113.389C428.273 113.84 427.904 114.209 427.453 114.209ZM426.852 123V115.631H428.041V123H426.852ZM433.291 123.13C431.186 123.13 429.914 121.653 429.914 119.343V119.336C429.914 117.06 431.213 115.501 433.216 115.501C435.219 115.501 436.436 116.991 436.436 119.192V119.657H431.131C431.165 121.182 432.006 122.07 433.318 122.07C434.316 122.07 434.932 121.599 435.13 121.154L435.157 121.093H436.347L436.333 121.147C436.08 122.146 435.027 123.13 433.291 123.13ZM433.209 116.561C432.115 116.561 431.281 117.306 431.151 118.707H435.226C435.103 117.251 434.296 116.561 433.209 116.561ZM440.811 123.13C439.17 123.13 438.042 122.337 437.905 121.12H439.122C439.32 121.735 439.908 122.139 440.852 122.139C441.843 122.139 442.547 121.667 442.547 120.997V120.983C442.547 120.484 442.171 120.136 441.262 119.917L440.12 119.644C438.739 119.315 438.117 118.714 438.117 117.654V117.647C438.117 116.424 439.293 115.501 440.858 115.501C442.403 115.501 443.477 116.273 443.641 117.477H442.472C442.314 116.896 441.74 116.492 440.852 116.492C439.977 116.492 439.334 116.943 439.334 117.593V117.606C439.334 118.105 439.703 118.42 440.571 118.632L441.706 118.905C443.094 119.24 443.764 119.842 443.764 120.895V120.908C443.764 122.221 442.485 123.13 440.811 123.13Z" fill="#BFDBFE"/>
</svg>
